{"title":"Kung Fu Panda 3 (2016) 1080p WEBRip x264 [Dual Audio] [Hindi DD","uid":14286472,"size":1588161407,"categoryP":"video","categoryS":"hd___movies","magnet":"?xt=urn:btih:c47e40108b301f88471c040f21d70029e9398bac&amp;dn=Kung+Fu+Panda+3+%282016%29+1080p+WEBRip+x264+%5BDual+Audio%5D+%5BHindi+DD+&amp;tr=udp%3A%2F%2Ftracker.leechers-paradise.org%3A6969&amp;tr=udp%3A%2F%2Fzer0day.ch%3A1337&amp;tr=udp%3A%2F%2Fopen.demonii.com%3A1337&amp;tr=udp%3A%2F%2Ftracker.coppersurfer.tk%3A6969&amp;tr=udp%3A%2F%2Fexodus.desync.com%3A6969","seeders":4,"leechers":4,"uploader":"TeriKasam","files":1,"time":1460408763,"description":"[center][size=200][color=black]Kung Fu Panda 3 (2016) 1080p WEBRip x2[/color][color=red]64 [Dual Audio] [Hindi DD 2 0 English DD 2 0] 1 47GB By TeriKasam mkv[/color][/size]\r\n[url=http://extraimago.com/image/aq3w][img]http://extraimago.com/images/2016/04/10/kung-fu-panda-3-poster-full.jpg[/img][/url][/center]\r\n\r\n\r\n\r\n[center][quote][color=red]\r\nVideo Source : ETRG\r\n\r\n\r\nGeneral \r\nUnique ID : 212765167633401061019496029606553391558 (0xA01114ABD2104EA7A3CE488CA23D11C6) \r\nComplete name : E:Kung Fu Panda 3 (2016) 1080p WEBRip x264 [Dual Audio] [Hindi DD 2.0 English DD 2.0] 1.47GB...By...TeriKasam.mkv \r\nFormat : Matroska \r\nFormat version : Version 4 / Version 2 \r\nFile size : 1.48 GiB \r\nDuration : 1h 35mn \r\nOverall bit rate : 2 224 Kbps \r\nEncoded date : UTC 2016-04-10 20:15:44 \r\nWriting application : mkvmerge v9.0.1 ('Obstacles') 32bit \r\nWriting library : libebml v1.3.3 + libmatroska v1.4.4 \r\n\r\nVideo \r\nID : 1 \r\nFormat : AVC \r\nFormat/Info : Advanced Video Codec \r\nFormat profile :    \r\nFormat settings, CABAC : Yes \r\nFormat settings, ReFrames : 5 frames \r\nCodec ID : V_MPEG4/ISO/AVC \r\nDuration : 1h 35mn \r\nBit rate : 1 999 Kbps \r\nWidth : 1 916 pixels \r\nHeight : 812 pixels \r\nDisplay aspect ratio : 2.35:1 \r\nFrame rate mode : Constant \r\nFrame rate : 23.976 (24000/1001) fps \r\nColor space : YUV \r\nChroma subsampling : 4:2:0 \r\nBit depth : 8 bits \r\nScan type : Progressive \r\nBits/(Pixel*Frame) : 0.054 \r\nStream size : 1.33 GiB (90%) \r\nTitle : TeriKasam \r\nWriting library : x264 core 148 r2638 7599210 \r\nEncoding settings : cabac=1 / ref=5 / deblock=1:-1:-1 / analyse=0x3:0x113 / me=umh / subme=9 / psy=1 / psy_rd=1.00:0.15 / mixed_ref=1 / me_range=24 / chroma_me=1 / trellis=2 / 8x8dct=1 / cqm=0 / deadzone=21,11 / fast_pskip=0 / chroma_qp_offset=-3 / threads=25 / lookahead_threads=2 / sliced_threads=0 / nr=0 / decimate=1 / interlaced=0 / bluray_compat=0 / constrained_intra=0 / bframes=3 / b_pyramid=2 / b_adapt=2 / b_bias=0 / direct=3 / weightb=1 / open_gop=0 / weightp=2 / keyint=240 / keyint_min=23 / scenecut=40 / intra_refresh=0 / rc_lookahead=60 / rc=2pass / mbtree=1 / bitrate=1999 / ratetol=1.0 / qcomp=0.60 / qpmin=0 / qpmax=69 / qpstep=4 / cplxblur=20.0 / qblur=0.5 / vbv_maxrate=31250 / vbv_bufsize=31250 / nal_hrd=none / filler=0 / ip_ratio=1.40 / aq=1:1.00 \r\nDefault : Yes \r\nForced : No \r\nColor range : Limited \r\nColor primaries : BT.709 \r\nMatrix coefficients : BT.709 \r\n\r\nAudio #1 \r\nID : 2 \r\nFormat : AAC \r\nFormat/Info : Advanced Audio Codec \r\nFormat profile : LC \r\nCodec ID : A_AAC \r\nDuration : 1h 35mn \r\nBit rate : 96.0 Kbps \r\nChannel(s) : 2 channels \r\nChannel positions : Front: L R \r\nSampling rate : 48.0 KHz \r\nFrame rate : 46.875 fps (1024 spf) \r\nCompression mode : Lossy \r\nDelay relative to video : -21ms \r\nStream size : 65.1 MiB (4%) \r\nTitle : TeriKasam \r\nLanguage : English \r\nDefault : Yes \r\nForced : No \r\n\r\nAudio #2 \r\nID : 3 \r\nFormat : AC-3 \r\nFormat/Info : Audio Coding 3 \r\nMode extension : CM (complete main) \r\nFormat settings, Endianness : Big \r\nCodec ID : A_AC3 \r\nDuration : 1h 34mn \r\nBit rate mode : Constant \r\nBit rate : 128 Kbps \r\nChannel(s) : 2 channels \r\nChannel positions : Front: L R \r\nSampling rate : 48.0 KHz \r\nFrame rate : 31.250 fps (1536 spf) \r\nCompression mode : Lossy \r\nDelay relative to video : -21ms \r\nStream size : 86.9 MiB (6%) \r\nTitle : TeriKasam \r\nLanguage : Hindi \r\nDefault : No \r\nForced : No \r\n\r\n[/color][/quote][/center]\r\n\r\n[center][size=200][color=red]SCREE[/color][color=black]NSHOTS[/color] \r\nClick On Image [/size][/center]\r\n\r\n[url=http://extraimago.com/image/aq3T][img]http://extraimago.com/images/2016/04/10/vlcsnap-2016-04-10-13h33m53s539d28f0.png[/img][/url]\r\n[url=http://extraimago.com/image/aq3j][img]http://extraimago.com/images/2016/04/10/vlcsnap-2016-04-10-13h33m36s628.png[/img][/url]\r\n[url=http://extraimago.com/image/aq3n][img]http://extraimago.com/images/2016/04/10/vlcsnap-2016-04-10-13h34m05s015.png[/img][/url]\r\n[url=http://extraimago.com/image/aq3s][img]http://extraimago.com/images/2016/04/10/vlcsnap-2016-04-10-13h32m48s878.png[/img][/url]\r\n[url=http://extraimago.com/image/aq3E][img]http://extraimago.com/images/2016/04/10/vlcsnap-2016-04-10-13h33m00s758.png[/img][/url]","torrent":{"xt":"urn:btih:c47e40108b301f88471c040f21d70029e9398bac","amp;dn":"Kung+Fu+Panda+3+%282016%29+1080p+WEBRip+x264+%5BDual+Audio%5D+%5BHindi+DD+","amp;tr":["udp%3A%2F%2Ftracker.leechers-paradise.org%3A6969","udp%3A%2F%2Fzer0day.ch%3A1337","udp%3A%2F%2Fopen.demonii.com%3A1337","udp%3A%2F%2Ftracker.coppersurfer.tk%3A6969","udp%3A%2F%2Fexodus.desync.com%3A6969"],"infoHash":"c47e40108b301f88471c040f21d70029e9398bac","infoHashBuffer":{"type":"Buffer","data":[196,126,64,16,139,48,31,136,71,28,4,15,33,215,0,41,233,57,139,172]},"announce":[],"urlList":[]}}